<?xml version="1.0" standalone="no"?>
<!DOCTYPE svg PUBLIC "-//W3C//DTD SVG 20010904//EN"
 "http://www.w3.org/TR/2001/REC-SVG-20010904/DTD/svg10.dtd">
<svg version="1.0" xmlns="http://www.w3.org/2000/svg"
 width="1000.000000pt" height="418.000000pt" viewBox="0 0 1000.000000 418.000000"
 preserveAspectRatio="xMidYMid meet">
<metadata>
Created by potrace 1.16, written by Peter Selinger 2001-2019
</metadata>
<g transform="translate(0.000000,418.000000) scale(0.100000,-0.100000)"
fill="#000000" stroke="none">
<path d="M30 3170 c0 -555 3 -1010 6 -1010 3 0 40 32 82 70 43 39 112 94 154
123 l77 52 1 728 0 727 1535 0 1535 0 0 160 0 160 -1695 0 -1695 0 0 -1010z"/>
<path d="M2015 3489 c-218 -36 -378 -163 -436 -347 -27 -86 -36 -266 -17 -372
l13 -75 168 -3 168 -2 -8 67 c-26 222 11 325 135 375 l57 23 663 3 662 3 0
170 0 169 -677 -1 c-373 -1 -700 -5 -728 -10z"/>
<path d="M4720 2478 c0 -428 4 -759 11 -827 14 -153 49 -286 106 -401 39 -80
62 -110 137 -186 77 -76 106 -97 186 -137 169 -82 343 -113 589 -104 241 9
398 51 543 146 176 115 284 290 340 551 20 90 21 133 25 883 l4 787 -230 0
-230 0 -3 -787 c-4 -771 -4 -790 -25 -865 -70 -246 -217 -358 -473 -358 -215
0 -362 83 -444 252 -70 142 -69 127 -73 986 l-4 772 -230 0 -229 0 0 -712z"/>
<path d="M7090 2980 l0 -210 215 0 215 0 0 210 0 210 -215 0 -215 0 0 -210z"/>
<path d="M8605 3178 c-3 -7 -178 -515 -389 -1128 -212 -613 -391 -1134 -400
-1157 l-15 -43 227 0 227 0 101 293 101 292 434 3 434 2 105 -292 105 -293
233 -3 232 -2 0 29 c0 17 -184 541 -410 1166 -225 625 -410 1138 -410 1141 0
2 -128 4 -285 4 -219 0 -287 -3 -290 -12z m403 -748 c50 -146 118 -343 151
-437 l60 -173 -328 0 -328 0 84 258 c88 270 203 636 223 712 l12 45 18 -70
c10 -38 59 -189 108 -335z"/>
<path d="M2300 2700 l0 -170 560 0 560 0 0 170 0 170 -560 0 -560 0 0 -170z"/>
<path d="M7090 1655 l0 -805 215 0 215 0 0 805 0 805 -215 0 -215 0 0 -805z"/>
<path d="M980 2326 c-613 -110 -1027 -655 -970 -1278 43 -470 307 -826 730
-985 157 -60 191 -63 733 -63 l497 0 0 159 0 159 -277 5 c-242 4 -288 7 -356
25 -265 72 -407 238 -407 474 0 201 105 381 266 455 168 77 426 36 553 -87 23
-22 43 -40 46 -40 3 0 4 84 3 187 l-3 187 -55 33 c-30 18 -91 45 -135 60 -72
24 -95 27 -225 27 -171 0 -228 -12 -370 -82 -81 -39 -109 -60 -191 -142 -105
-105 -157 -190 -201 -330 -20 -64 -23 -96 -23 -220 0 -189 29 -285 128 -432
l45 -67 -62 41 c-217 148 -334 352 -366 640 -40 356 132 683 439 837 189 96
383 120 599 75 l32 -6 0 180 c0 131 -3 183 -12 188 -23 14 -339 14 -418 0z"/>
<path d="M2320 1110 l0 -1110 185 0 185 0 0 1110 0 1110 -185 0 -185 0 0
-1110z"/>
<path d="M3040 1110 l0 -1110 190 0 190 0 0 1110 0 1110 -190 0 -190 0 0
-1110z"/>
</g>
</svg>
