<?xml version="1.0" encoding="utf-8"?>
<svg version="1.1" id="Layer_1" xmlns="http://www.w3.org/2000/svg" xmlns:xlink="http://www.w3.org/1999/xlink" x="0px" y="0px"
	 viewBox="0 0 1862 1672.187" enable-background="new 0 0 1862 1672.187" xml:space="preserve">
<g id="Red_Heart">
</g>
<g>
	<path d="M823.325,475.822c4.597-3.542,6.408-7.381,5.601-11.918C826.989,467.919,823.48,470.372,823.325,475.822z"/>
	<path d="M1283.931,781.538c25.315,13.352,25.269,14.444,28.09,13.048c3.221-1.594,5.031,0.055,6.292,2.655
		c11.289,23.303,45.861,5.767,63.854,4.736c4.356-0.249,2.328-4.271,0.684-4.724c-4.796-1.32-7.996-5.14-12.207-7.376
		c-7.938-4.215-40.756-16.141-41.769-16.529c-62.547-23.988-58.181,8.498-130.311-52.873c-2.913-2.479-4.682-0.236-3.435,2.533
		C1223.38,785.773,1229.816,752.995,1283.931,781.538z"/>
	<path d="M690.792,1417.307c0.232-9.854-14.793-9.547-9.365-27.413c1.63-5.364,1.576-5.941-3.112-8.386
		c-13.425-7.002-10.891-17.781-14.412-21.323c-7.245-7.292-11.099-16.499-14.937-25.781c-10.425-25.22-7.95-9.389-17.026-45.108
		c-4.27-16.806-7.05-6.64-10.676-13.733c-2.291-4.48-4.784-8.896-4.492-14.215c0.058-1.054,0.13-2.489-0.468-3.139
		c-7.863-8.567-8.235-39.598-18.511-75.29c-1.062-3.688-3.094-14.422-1.36-18.102c3.442-7.304-1.299-12.358-0.181-18.704
		c2.734-15.518-8.912-49.661-10.68-53.786c-3.891-9.07,1.567-16.122-1.097-23.253c-3.73-9.986-7.086-20.116-10.997-30.029
		c-2.954-7.489-7.273-14.378-9.852-22.082c-8.758-26.165-20.634-57.927-20.634-57.927c-2.846-13.831,2.207-15.446-3.01-19.221
		c-7.35-5.319-2.487-13.53-10.729-21.038c-3.845-3.503-7.488-21.79-7.744-23.422c-4.008-25.624-14.678-48.503-11.328-61.462
		c2.141-8.282,7.472-10.476,4.087-14.878c-3.934-5.114-1.065-8.149-4.509-16.278c-1.98-4.672-3.707-9.123-2.27-14.459
		c0.809-3.004-0.532-3.592-3.645-2.182c-7.984,3.617-10.826,2.889-16.371-3.857c-3.909-4.756-8.06-9.261-7.494-16.165
		c0.256-3.111,0.446-6.013,2.526-8.609c1.631-2.037,2.539-4.686,4.282-6.595c3.723-4.079,5.481-7.767,1.319-12.889
		c-4.042-4.974,2.888-13.343,2.94-16.748c0.087-5.608,2.764-9.969,6.467-13.862c5.272-5.542-2.572-7.904,3.147-13.706
		c1.679-1.703,1.09-3.134-0.89-4.119c-39.077-19.432-49.511-74.207-38.312-90.312c1.967-2.827-0.507-8.161,5.042-8.949
		c2.233-8.418,2.855-17.991,16.229-29.885c32.421-28.836,70.754-45.942,80.68-45.79c6.777,0.103,13.484,0.869,20.025,2.62
		c9.491,2.542,3.581,6.394,2.66,10.119c1.112,1.136,2.498,1.764,4.017,2.093c18.975,4.105,41.86,25.004,44.231,26.033
		c1.919,0.833,1.191,3.095,1.231,4.775c0.396,16.437,10.924,14.518,30.305,23.045c9.734,4.283,9.448,13.776,3.802,17.723
		c-4.764,3.331-3.027,6.119,1.728,26.581c1.931,8.308,9.774,4.276,10.284,13.924c0.244,4.607,2.079,7.941,6.4,10.537
		c5.986,3.596,7.135,10.923,2.613,16.532c-3.717,4.611-2.575,10.014-3.881,14.977c-0.577,2.192,1.904,3.206,3.599,4.167
		c4.372,2.48,7.562-1.438,9.794-5.93c1.865-3.751,9.074-12.613,16.101-8.976c3.685,1.907,9.103-0.034,11.527,3.737
		c2.01,3.126,3.179,7.039,4.523,10.647c4.842,12.99,14.576,4.842,34.385,11.072c16.346,5.141,17.455-6.8,24.97-1.156
		c1.407,1.056,3.299,1.324,5.049,0.867c7.413-1.935,15.169-1.332,22.619-3.382c14.874-4.091,7.811-14.578,20.186-12.336
		c9.525,1.726,16.89-3.952,16.811-13.756c-0.031-3.965,0.899-6.642,3.814-9.091c2.043-1.716,2.143-1.896,9.752-24.118
		c1.56-4.553-0.397-4.676-12.614-8.985c-2.446-0.864-4.066,0.161-3.88,2.706c0.479,6.528-4.234,11.455-3.302,14.493
		c1.81,5.904-0.106,11.764-0.489,17.588c-0.461,7.016-9.108,10.791-14.588,6.438c-39.998-31.772-9.114-43.427-5.152-54.125
		c3.562-9.617-2.872-6.245,7.599-19.548c12.923-16.42,5.457-21.624,10.564-30.91c7.188-13.068,5.309-12.563,9.32-14.66
		c2.672-1.397,7.511-0.287,6.026-12.311c-1.696-13.729-5.54-12.028-17.848-41.379c-6.813-16.245,3.1-21.421-4.489-26.328
		c-1.436-0.929-2.568-2.33-5.081-3.169c-1.538,7.348-7.414,11.953-10.971,18.093c-1.549,2.673-5.409,7.997-8.064,6.212
		c-1.989-1.336-1.685-2.73,3.718-10.207c-7.609-6.055-9.603,4.18-12.66,0.291c-1.409-1.793,1.114-2.822,2.15-4.107
		c2.044-2.535,0.884-5.969,2.497-8.892c1.175-2.128,1.318-4.754,3.209-6.887c6.513-7.345-10.553-5.428-14.988-17.008
		c-2.448-6.393-7.51-5.475-6.44-12.179c0.4-2.504-1.038-3.809-3.017-5.232c-15.364-11.055-25.618-25.325-27.401-44.736
		c-0.674-7.336-7.69-20.111,7.121-41.572c20.258-29.355,24.372-29.146,38.424-39.775c20.438-15.459,34.937-17.562,61.461-18.56
		c6.417-0.241,0.129,0.731,20.366,8.36c2.553,0.963,4.418,2.278,6.044,4.61c3.501,5.021,7.282,9.826,10.442,15.109
		c4.636,7.755,12.595,6.354,10.356,21.513c-2.246,15.206-0.453,17.239-4.963,23.384c-1.057,1.44-2.325,2.816-1.981,4.679
		c0.587,3.176-4.186,5.694-1.774,8.383c3.776,4.212,0.19,11.396,6.132,10.508c1.279-0.191,2.868-0.216,3.729-0.98
		c4.543-4.023,11.406-4.716,14.757-10.478c1.987-3.418,15.043-3.463,19.507-2.404c5.882,1.396,13.625-0.494,22.174,1.836
		c31.96,8.712,33.742,8.407,36.964,13.413c4.926,7.655,8.574,2.618,19.843,3.823c13.206,1.412,14.235,11.171,19.825,21.189
		c9.43,16.898,21.121,9.778,28.357,15.941c22.136,18.851,45.193,6.977,50.908,33.331c5.199,23.973-3.318,26.576,7.832,30.764
		c35.159,13.205,45.604,26.46,56.177,31.953c27.968,14.531,33.856,21.527,49.036,34.681c10.475,9.076,17.079,5.678,12.496,18.273
		c-28.934,79.534-38.792,52.435-16.455,85.725c21.937,32.694,18.656,28.263,31.989,40.34c15.994,14.49,49.937,6.217,83.316,24.357
		c2.111,1.147,41.342,30.336,43.204,31.853c8.615,7.022,11.583,3.561,14.106,8.704c1.505,3.065,4.866,1.096,6.829,2.151
		c1.883,1.011,0.796,5.069,4.141,5.824c11.205,2.525,13.73-0.648,35.496-3.221c27.164-3.211,21.689,0.757,39.821,50.977
		c19.098,52.894-16.19,96.38-28.832,69.164c-8.098-17.432-4.461-15.244-32.561-48.345c-5.887-6.934-7.868-6.789-18.889-13.235
		c-11.324-6.623-11.812-16.315-22.341-19.534c-3.953-1.208-7.878,0.11-5.826,3.209c11.388,17.197,9.747,28.27,23.779,40.307
		c31.39,26.925,10.103,70.6-0.38,69.257c-8.167-1.046-15.443-3.713-18.6-12.203c-4.204-11.306-18.91-17.756-22.646-25.017
		c-0.601-1.168-1.507-2.115-2.836-2.599c-13.303-4.838-15.825-19.435-22.312-9.883c-2.515,3.703-4.352,12.066-11.867,9.614
		c-5.999-1.958-3.034-12.105-0.77-15.614c4.664-7.226-23.551-17.904-30.318-12.544c-2.385,1.889-4.412,1.298-6.218-0.93
		c-2.932-3.62-5.668-2.557-42.08-11.225c-24.814-5.907-29.502-10.228-61.408-18.701c-34.447-9.148-46.668-27.292-77.962-62.316
		c-7.46-8.349-10.576,3.907-16.225-5.67c-5.046-8.554-11.033-7.607-10.38-17.976c0.421-6.688-3.348-1.218-8.15-11.541
		c-9.306-20.005-7.456-1.869-18.976-30.495c-2.664-6.619-19.775,1.799-32.641-16.242c-6.056-8.491-15.537-10.009-23.996-13.734
		c-3.396-1.495-4.787,3.21-4.766,4.608c0.172,11.842-2.156,23.484-2.771,35.266c-2.028,38.846-1.397,29.724-41.71,56.825
		c-22.095,14.854-53.933,28.862-60.121,31.826c-13.141,6.295-3.43,19.969-28.208,38.787c-24.758,18.802-28.708,15.238-23.63,22.705
		c0.688,1.012,26.806,39.394,29.589,42.445c13.971,15.315,14.752,29.752,39.566,53.566c14.991,14.386,23.162,28.674,24.441,32.284
		c10.287,29.03,21.224,30.13,25.039,39.348c5.369,12.974,9.065,13.126,10.825,23.735c1.743,10.512,7.012,19.236,13.897,26.891
		c10.041,11.163,24.224,3.922,36.648,30.823c5.432,11.763-8.009,18.681-19.735,18.754c-7.798,0.048-25.853,1.852-31.239,7.473
		c-0.088,2.165,2.421,1.528,3.025,3.034c1.739,4.342-0.518,7.906-5.335,7.776c-10.093-0.27-9.438,3.054-16.544,3.06
		c-14.236,0.011-28.278,2.217-42.4,3.536c-4.389,0.41-3.868,0.59-6.059,26.281c-0.608,7.127,10.835,13.09-0.875,19.557
		c-7.883,4.354-2.89,8.714-9.278,21.812c-8.515,17.458,7.909,16.763,8.254,45.5c0.266,22.041,2.603,12.566,2.057,26.021
		c-0.494,12.182,3.761,15.185,4.781,18.512c2.789,9.094,15.221,40.946,11.799,51.661c-0.931,2.917,1.123,5.477,1.693,8.219
		c1.603,7.728,0.703,15.669,2.414,23.397c9.877,44.59,1.316,82.448,8.465,130.47c1.876,12.603,14.863,60.335,14.216,123.013
		c539.701-405.66,956.405-861.811,855.261-1255.65C1756.608,185.769,1599.38,62.488,1383.077,39.11
		c-18.802-2.032-37.088-3.017-54.916-3.017c-188.025,0-321.806,109.801-398.292,259.873
		c-79.905-156.623-216.3-258.21-415.171-258.205c-13.161,0-26.61,0.446-40.32,1.349C276.582,52.148,106.667,170.426,53.134,400.992
		c-81.663,351.72,233.723,710.071,646.905,1062.404c-0.279-3.686-0.366-7.373-0.94-11.042
		C697.941,1444.945,690.698,1421.299,690.792,1417.307z"/>
</g>
</svg>
